<?xml version="1.0" standalone="no"?><svg xmlns="http://www.w3.org/2000/svg" viewBox="0 0 1440 320"><path fill="#778da9" fill-opacity="1" d="M0,224L34.3,224C68.6,224,137,224,206,208C274.3,192,343,160,411,160C480,160,549,192,617,202.7C685.7,213,754,203,823,192C891.4,181,960,171,1029,149.3C1097.1,128,1166,96,1234,101.3C1302.9,107,1371,149,1406,170.7L1440,192L1440,320L1405.7,320C1371.4,320,1303,320,1234,320C1165.7,320,1097,320,1029,320C960,320,891,320,823,320C754.3,320,686,320,617,320C548.6,320,480,320,411,320C342.9,320,274,320,206,320C137.1,320,69,320,34,320L0,320Z"></path></svg>